# xmcd
#
# Track frame offsets: 
#        150
#        12563
#        25114
#        35178
#        45316
#        56281
#        66142
#        77595
#        88663
#        97048
#        106400
#        116879
#
# Disc length: 1688 seconds
#
# Revision: 0
# Processed by: cddbd v1.5.2PL0 Copyright (c) Steve Scherf et al.
# Submitted via: ExactAudioCopy v1.3
#
DISCID=9806960c
DTITLE=Johnny Cash - Johnny Cash
DYEAR=2010
DGENRE=Country
TTITLE0=I Walk the Line
TTITLE1=Folsom Prison Blues
TTITLE2=Get Rhythm
TTITLE3=Hey Porter
TTITLE4=Cry, Cry, Cry
TTITLE5=Rock Island Line
TTITLE6=Big River
TTITLE7=I Love You Because
TTITLE8=Guess Things Happen That Way
TTITLE9=Luther's Boogie
TTITLE10=There You Go
TTITLE11=Ballad of a Teenage Queen
EXTD=
EXTT0=
EXTT1=
EXTT2=
EXTT3=
EXTT4=
EXTT5=
EXTT6=
EXTT7=
EXTT8=
EXTT9=
EXTT10=
EXTT11=
PLAYORDER=
